<?xml version="1.0" encoding="UTF-8"?><svg id="Layer_1" xmlns="http://www.w3.org/2000/svg" viewBox="0 0 82 82"><path d="M45.75,5.49c-14.25,0-26.55,8.54-32.12,20.8-.82,1.8,.51,3.83,2.49,3.83h3.03c1.03,0,1.96-.59,2.43-1.51,4.49-8.85,13.64-14.92,24.18-14.92,14.96,0,27.14,12.25,27.14,27.3s-12.17,27.3-27.14,27.3c-10.01,0-18.77-5.48-23.47-13.61-.49-.85-1.38-1.37-2.36-1.37h-3.11c-2.03,0-3.36,2.15-2.43,3.96,5.88,11.42,17.73,19.24,31.37,19.24,19.46,0,35.3-15.93,35.3-35.51S65.21,5.49,45.75,5.49Z"/><g><path d="M14.46,45.45h-5.75c-1,0-1.95-.39-2.66-1.1s-1.1-1.65-1.1-2.65c0-2.07,1.68-3.75,3.75-3.75h11.51c2.07,0,3.75,1.68,3.75,3.75,0,1.1,.9,2,2,2s2-.9,2-2c0-4.27-3.48-7.75-7.75-7.75H8.7c-4.27,0-7.75,3.48-7.75,7.75,0,2.07,.81,4.02,2.27,5.48s3.41,2.27,5.48,2.27h5.75c1.1,0,2-.9,2-2s-.9-2-2-2Z"/><path d="M56.82,40.74l-18.49-13.95c-.66-.5-1.61-.03-1.61,.8v6.09c0,.09,.02,.17,.04,.26h-6.48c-1.1,0-2,.9-2,2s.9,2,2,2h6.9c2.07,0,3.75,1.68,3.75,3.75s-1.68,3.75-3.75,3.75h-12.66c-1,0-1.95-.39-2.65-1.1-.71-.71-1.1-1.65-1.1-2.65,0-1.1-.9-2-2-2s-2,.9-2,2c0,4.27,3.48,7.75,7.75,7.75h12.23c-.02,.08-.04,.17-.04,.26v6.07c0,.83,.95,1.3,1.61,.79l18.49-14.23c.52-.4,.52-1.2,0-1.59Z"/></g></svg>