<?xml version="1.0" encoding="UTF-8"?><svg id="Layer_1" xmlns="http://www.w3.org/2000/svg" viewBox="0 0 82 82"><defs><style>.cls-1{fill:#efe0da;}.cls-2{fill:#444c57;}.cls-3{fill:#63768a;}</style></defs><path class="cls-1" d="M81.16,20.99c-.21-1.75-.55-3.46-1.03-5.13-.48-1.67-1.29-3.52-2.43-5.57-1.14-2.03-2.8-3.91-4.97-5.64-2.18-1.72-4.84-2.94-8-3.65-1.74-.39-3.5-.61-5.3-.66-.49-.01-.97-.02-1.45-.02-2.8,0-5.63,.27-8.49,.82-2.86,.55-5.76,1.4-8.69,2.55-5.18,2.04-9.9,4.57-14.16,7.6-4.26,3.03-8.09,6.5-11.51,10.43-1.86,2.14-3.45,4.4-4.78,6.79-2.62,3.87-4.71,8.05-6.26,12.57-1.07,3.11-1.79,5.89-2.16,8.34-.36,2.45-.56,4.53-.59,6.25-.02,1.55,.05,3.11,.21,4.69,.18,1.75,.5,3.47,.96,5.14,.46,1.67,1.24,3.54,2.35,5.6,1.11,2.05,2.74,3.95,4.9,5.7,2.15,1.75,4.81,3,7.95,3.75,1.73,.41,3.49,.65,5.29,.73,.49,.02,.97,.03,1.45,.04,2.8,.04,5.63-.19,8.5-.71,.07-.01,.14-.03,.2-.04,.71-.05,1.65-.2,2.83-.47,1.44-.33,2.68-.71,3.73-1.14,.45-.18,.89-.38,1.33-.57,.21-.08,.41-.14,.62-.22,.21-.08,.4-.17,.61-.25,.05,0,.11-.02,.15-.02,.06,0,.15,.02,.27,.05,.12,.04,.26,.22,.41,.54,.13,.23,.26,.35,.39,.36,.13,0,.21,0,.22,0,.23,0,.47-.07,.7-.21,.39-.23,.58-.54,.58-.93-.01-.08-.02-.16-.02-.23,0-.31,.08-.57,.25-.8,3.83-1.69,7.4-3.67,10.7-5.95,4.3-2.97,8.18-6.4,11.64-10.27,2.37-2.65,4.31-5.5,5.85-8.55,2.26-3.62,4.07-7.5,5.44-11.65,1.03-3.12,1.72-5.91,2.05-8.37,.33-2.45,.5-4.54,.5-6.25,0-1.55-.09-3.11-.27-4.69Z"/><g><path class="cls-2" d="M43.19,16.39c-9.92,0-18.49,5.95-22.37,14.48-.57,1.25,.36,2.67,1.73,2.67h2.11c.72,0,1.37-.41,1.69-1.05,3.13-6.16,9.5-10.39,16.84-10.39,10.42,0,18.9,8.53,18.9,19.01s-8.48,19.01-18.9,19.01c-6.97,0-13.07-3.81-16.34-9.48-.34-.59-.96-.96-1.64-.96h-2.17c-1.41,0-2.34,1.5-1.69,2.76,4.09,7.95,12.35,13.4,21.84,13.4,13.55,0,24.58-11.09,24.58-24.73s-11.03-24.73-24.58-24.73Z"/><g><path class="cls-3" d="M21.4,44.21h-4.01c-.7,0-1.36-.27-1.85-.77s-.77-1.15-.76-1.85c0-1.44,1.17-2.61,2.61-2.61h8.01c1.44,0,2.61,1.17,2.61,2.61,0,.77,.62,1.39,1.39,1.39s1.39-.62,1.39-1.39c0-2.98-2.42-5.4-5.4-5.4h-8.01c-2.98,0-5.4,2.42-5.4,5.4,0,1.44,.56,2.8,1.58,3.82s2.38,1.58,3.82,1.58h4.01c.77,0,1.39-.62,1.39-1.39s-.62-1.39-1.39-1.39Z"/><path class="cls-3" d="M50.9,40.94l-12.88-9.71c-.46-.35-1.12-.02-1.12,.56v4.24c0,.06,.01,.12,.03,.18h-4.51c-.77,0-1.39,.62-1.39,1.39s.62,1.39,1.39,1.39h4.81c1.44,0,2.61,1.17,2.61,2.61s-1.17,2.61-2.61,2.61h-8.81c-.7,0-1.35-.27-1.85-.77-.49-.49-.77-1.15-.77-1.85,0-.77-.62-1.39-1.39-1.39s-1.39,.62-1.39,1.39c0,2.98,2.42,5.4,5.4,5.4h8.52c-.02,.06-.03,.12-.03,.18v4.23c0,.58,.66,.91,1.12,.55l12.88-9.91c.37-.28,.36-.83,0-1.11Z"/></g></g></svg>